<?xml version="1.0" standalone="no"?><!DOCTYPE svg PUBLIC "-//W3C//DTD SVG 1.1//EN" "http://www.w3.org/Graphics/SVG/1.1/DTD/svg11.dtd"><svg class="icon" width="32px" height="32.00px" viewBox="0 0 1024 1024" version="1.1" xmlns="http://www.w3.org/2000/svg"><path fill="#8a8a8a" d="M898.729925 962.254727 126.077463 962.254727c-33.855062 0-61.398372-27.54331-61.398372-61.398372L64.679092 127.171378c0-33.855062 27.54331-61.398372 61.398372-61.398372l707.581444 0 0 61.398372L126.077463 127.171378c0.042979 0.005117-0.008186 0.058328-0.024559 0.090051l0.024559 773.59595c0.004093-0.079818 0.057305 0.008186 0.090051 0.023536l772.562411-0.023536c-0.044002-0.005117 0.008186-0.058328 0.023536-0.090051l-0.023536-643.74044 61.398372 0 0 643.830491C960.128297 934.711418 932.584987 962.254727 898.729925 962.254727zM460.261639 802.654776 460.261639 802.654776c-14.104229-9.281387-18.050098-28.41619-8.768711-42.520419L901.513318 76.276221c9.281387-14.104229 28.41619-18.050098 42.520419-8.768711l0 0c14.104229 9.281387 18.050098 28.41619 8.768711 42.520419L502.782058 793.886065C493.500671 807.990295 474.366891 811.936163 460.261639 802.654776z" /></svg>