<?xml version="1.0" standalone="no"?><!DOCTYPE svg PUBLIC "-//W3C//DTD SVG 1.1//EN" "http://www.w3.org/Graphics/SVG/1.1/DTD/svg11.dtd"><svg class="icon" width="14px" height="14.00px" viewBox="0 0 1024 1024" version="1.1" xmlns="http://www.w3.org/2000/svg"><path fill="#ffffff" d="M771.223552 296.923136c-9.105408-8.701952-9.508864-23.126016-0.806912-32.233472 8.701952-9.105408 23.128064-9.428992 32.233472-0.804864 41.259008 39.243776 74.539008 86.626304 97.263616 139.569152l0.48128 1.29024c21.676032 50.765824 33.601536 106.530816 33.601536 165.033984 0 116.523008-47.220736 222.005248-123.611136 298.397696-76.312576 76.314624-181.876736 123.531264-298.319872 123.531264-116.523008 0-222.087168-47.218688-298.397696-123.531264-76.392448-76.392448-123.613184-181.874688-123.613184-298.397696 0-58.986496 12.167168-115.152896 34.084864-166.242304L124.13952 403.456l0 0c22.724608-52.942848 56.006656-100.325376 97.263616-139.569152 9.105408-8.62208 23.529472-8.300544 32.233472 0.804864 8.704 9.105408 8.300544 23.53152-0.806912 32.233472-36.747264 34.893824-66.398208 77.19936-86.788096 124.581888l0-0.08192c-19.499008 45.449216-30.298112 95.571968-30.298112 148.353024 0 103.872512 42.145792 197.992448 110.237696 266.0864 68.009984 68.091904 162.131968 110.155776 266.084352 110.155776 103.872512 0 197.992448-42.063872 266.002432-110.155776 68.093952-68.093952 110.237696-162.213888 110.237696-266.0864 0-52.297728-10.633216-102.096896-29.816832-147.224576l-0.48128-1.048576C837.623808 374.122496 807.970816 331.81696 771.223552 296.923136L771.223552 296.923136zM489.183232 55.175168c0-12.650496 10.235904-22.8864 22.884352-22.8864 12.570624 0 22.806528 10.235904 22.806528 22.8864l0 381.31712c0 12.650496-10.235904 22.8864-22.806528 22.8864-12.650496 0-22.884352-10.235904-22.884352-22.8864L489.183232 55.175168z" /></svg>