<?xml version="1.0" standalone="no"?><!DOCTYPE svg PUBLIC "-//W3C//DTD SVG 1.1//EN" "http://www.w3.org/Graphics/SVG/1.1/DTD/svg11.dtd"><svg class="icon" width="200px" height="200.00px" viewBox="0 0 1024 1024" version="1.1" xmlns="http://www.w3.org/2000/svg"><path fill="#ffffff" d="M633.79456 558.08a210.45248 210.45248 0 0 0 107.52-183.95136C741.31456 257.98656 647.8848 163.84 532.64384 163.84s-208.67072 94.14656-208.67072 210.28864c0 79.1552 43.39712 148.0704 107.52 183.95136-113.52064 36.33152-200.72448 132.17792-225.54624 251.1872a20.60288 20.60288 0 0 0-1.08544 5.40672c-0.1024 0.47104 0.02048 0.94208-0.06144 1.4336 0 11.61216 9.33888 21.03296 20.86912 21.03296s20.86912-9.4208 20.86912-21.03296c28.52864-132.46464 146.1248-231.69024 286.1056-231.69024s257.26976 99.2256 285.7984 231.69024c0.2048 11.44832 9.46176 20.64384 20.84864 20.64384s20.66432-9.216 20.84864-20.64384c-22.8352-122.1632-110.63296-220.99968-226.34496-258.02752z m-268.0832-183.95136c0-92.91776 74.752-168.22272 166.93248-168.22272 92.20096 0 166.93248 75.32544 166.93248 168.22272s-74.752 168.22272-166.93248 168.22272c-92.20096 0-166.93248-75.32544-166.93248-168.22272z" /></svg>