<?xml version="1.0" standalone="no"?><!DOCTYPE svg PUBLIC "-//W3C//DTD SVG 1.1//EN" "http://www.w3.org/Graphics/SVG/1.1/DTD/svg11.dtd"><svg class="icon" width="32px" height="32.00px" viewBox="0 0 1024 1024" version="1.1" xmlns="http://www.w3.org/2000/svg"><path fill="#5BAFF1" d="M588.550467 386.458749 588.550467 386.458749l-1.692548-1.118474-171.328064-98.655927c-3.953032-3.355421-8.453533-4.499477-13.525038-4.499477-12.950963 0-23.669072 10.716063-23.669072 24.241101l0 399.592884c0 3.381004 0.833995 7.617491 3.381004 11.834536 6.736425 11.002588 20.862143 15.242146 32.408107 8.453533L586.857918 626.297163l173.045171-99.774401c3.667529-1.980097 6.763031-4.786003 8.999978-9.025561 6.763031-11.288091 2.26253-25.6461-8.453533-32.122605L588.550467 386.458749 588.550467 386.458749zM563.760874 585.145927 563.760874 585.145927l-0.572028 0-137.229454 79.178317L425.959392 347.547531l137.229454 78.936817 1.118474 0.549515 136.423089 78.914304L563.760874 585.145927 563.760874 585.145927zM509.278006 65.152882c-247.353574 0-447.874517 200.517873-447.874517 447.867354s200.520943 447.874517 447.874517 447.874517 447.870424-200.525036 447.870424-447.874517S756.63158 65.152882 509.278006 65.152882zM509.278006 897.361765c-212.267475 0-384.344598-172.069961-384.344598-384.341528 0-212.257242 172.077124-384.341528 384.344598-384.341528S893.619534 300.762995 893.619534 513.020236C893.619534 725.291804 721.54548 897.361765 509.278006 897.361765z" /></svg>